# xmcd CD database file
#
# Track frame offsets:
#	150
#	16087
#	33882
#	54542
#	73277
#	89820
#	102217
#	119590
#	133657
#	150532
#	164387
#	182392
#
# Disc length: 2702 seconds
#
# Revision: 0
# Processed by: cddbd v1.5PL3 Copyright (c) Steve Scherf et al.
# Submitted via: CDex 1.51
#
DISCID=9d0a8c0c
DTITLE=チューリップ - チューリップ・ガーデン [CD2]
DYEAR=1900
DGENRE=J-Pop
TTITLE0=ぼくがつっくった愛のうた
TTITLE1=私のアイドル
TTITLE2=サボテンの花
TTITLE3=なくした言葉
TTITLE4=悲しきレイン・トレイン
TTITLE5=さよならのプレゼント
TTITLE6=娘が嫁ぐ朝
TTITLE7=風見鳥
TTITLE8=風のメロディ
TTITLE9=ともだちのあなただから
TTITLE10=ブルー・スカイ
TTITLE11=恋人への手紙
EXTD=
EXTT0=
EXTT1=
EXTT2=
EXTT3=
EXTT4=
EXTT5=
EXTT6=
EXTT7=
EXTT8=
EXTT9=
EXTT10=
EXTT11=
PLAYORDER=
